<svg width="145" height="35" viewBox="0 0 145 35" fill="none" xmlns="http://www.w3.org/2000/svg">
<path d="M25.0872 34.2805L21.3911 30.5844C20.4871 30.8326 19.5652 30.9566 18.6257 30.9566C16.9062 30.9566 15.3374 30.5578 13.9192 29.7601C12.501 28.9446 11.3754 27.819 10.5422 26.3831C9.72677 24.9295 9.31905 23.2986 9.31905 21.4904C9.31905 19.6823 9.72677 18.0603 10.5422 16.6244C11.3754 15.1708 12.501 14.0451 13.9192 13.2474C15.3374 12.4319 16.9062 12.0242 18.6257 12.0242C20.363 12.0242 21.9407 12.4319 23.3588 13.2474C24.777 14.0451 25.8938 15.1619 26.7092 16.5978C27.5247 18.0337 27.9324 19.6645 27.9324 21.4904C27.9324 23.2631 27.5424 24.8586 26.7624 26.2767C25.9824 27.6949 24.9099 28.8117 23.545 29.6271L28.2249 34.2805H25.0872ZM11.792 21.4904C11.792 22.9618 12.0845 24.2558 12.6695 25.3726C13.2722 26.4894 14.0876 27.3492 15.1158 27.9519C16.1617 28.5546 17.3316 28.856 18.6257 28.856C19.9198 28.856 21.0809 28.5546 22.1091 27.9519C23.155 27.3492 23.9704 26.4894 24.5554 25.3726C25.1581 24.2558 25.4595 22.9618 25.4595 21.4904C25.4595 20.0014 25.1581 18.7073 24.5554 17.6082C23.9704 16.4914 23.1638 15.6317 22.1357 15.0289C21.1075 14.4262 19.9375 14.1249 18.6257 14.1249C17.3139 14.1249 16.1439 14.4262 15.1158 15.0289C14.0876 15.6317 13.2722 16.4914 12.6695 17.6082C12.0845 18.7073 11.792 20.0014 11.792 21.4904ZM44.1017 16.1989V30.7705H41.682V28.6167C41.221 29.3612 40.574 29.9462 39.7408 30.3717C38.9254 30.7794 38.0213 30.9832 37.0286 30.9832C35.8941 30.9832 34.8748 30.7528 33.9707 30.2919C33.0666 29.8133 32.3487 29.1042 31.8169 28.1646C31.3028 27.2251 31.0458 26.0817 31.0458 24.7345V16.1989H33.4389V24.4154C33.4389 25.8513 33.8023 26.9592 34.5291 27.7392C35.2559 28.5015 36.2486 28.8826 37.5072 28.8826C38.8013 28.8826 39.8206 28.4837 40.5651 27.686C41.3097 26.8883 41.682 25.7272 41.682 24.2027V16.1989H44.1017ZM49.437 13.8324C48.9761 13.8324 48.5861 13.6728 48.267 13.3537C47.948 13.0347 47.7884 12.6447 47.7884 12.1838C47.7884 11.7229 47.948 11.3329 48.267 11.0138C48.5861 10.6947 48.9761 10.5352 49.437 10.5352C49.8802 10.5352 50.2525 10.6947 50.5538 11.0138C50.8729 11.3329 51.0324 11.7229 51.0324 12.1838C51.0324 12.6447 50.8729 13.0347 50.5538 13.3537C50.2525 13.6728 49.8802 13.8324 49.437 13.8324ZM50.607 16.1989V30.7705H48.1873V16.1989H50.607ZM56.5392 28.7762H63.692V30.7705H53.7738V28.7762L60.8468 18.1666H53.8269V16.1989H63.6388V18.1666L56.5392 28.7762Z" fill="#3B3B3B"/>
<path d="M80.8715 17.6082C80.3575 16.5269 79.6129 15.6937 78.6379 15.1087C77.663 14.506 76.5284 14.2046 75.2344 14.2046C73.9403 14.2046 72.7703 14.506 71.7244 15.1087C70.6963 15.6937 69.8808 16.5446 69.2781 17.6614C68.6931 18.7605 68.4006 20.0368 68.4006 21.4904C68.4006 22.944 68.6931 24.2204 69.2781 25.3195C69.8808 26.4185 70.6963 27.2694 71.7244 27.8721C72.7703 28.4571 73.9403 28.7496 75.2344 28.7496C77.0425 28.7496 78.5316 28.209 79.7016 27.1276C80.8715 26.0463 81.554 24.5838 81.749 22.7402H74.3569V20.7725H84.3283V22.6338C84.1865 24.1583 83.7079 25.5588 82.8924 26.8351C82.077 28.0937 81.0045 29.0953 79.675 29.8398C78.3454 30.5666 76.8652 30.9301 75.2344 30.9301C73.5148 30.9301 71.946 30.5312 70.5278 29.7335C69.1097 28.918 67.984 27.7924 67.1509 26.3565C66.3354 24.9206 65.9277 23.2986 65.9277 21.4904C65.9277 19.6823 66.3354 18.0603 67.1509 16.6244C67.984 15.1708 69.1097 14.0451 70.5278 13.2474C71.946 12.4319 73.5148 12.0242 75.2344 12.0242C77.2021 12.0242 78.9393 12.5117 80.4461 13.4867C81.9706 14.4617 83.0786 15.8355 83.7699 17.6082H80.8715ZM89.9474 18.5655C90.3729 17.7323 90.9756 17.0853 91.7556 16.6244C92.5533 16.1635 93.5194 15.933 94.6539 15.933V18.4325H94.0158C91.3035 18.4325 89.9474 19.9039 89.9474 22.8465V30.7705H87.5277V16.1989H89.9474V18.5655ZM96.5431 23.4315C96.5431 21.9425 96.8445 20.6395 97.4472 19.5227C98.0499 18.3882 98.8742 17.5107 99.9201 16.8903C100.984 16.2698 102.163 15.9596 103.457 15.9596C104.733 15.9596 105.841 16.2344 106.78 16.7839C107.72 17.3335 108.42 18.0248 108.881 18.858V16.1989H111.327V30.7705H108.881V28.0583C108.402 28.9092 107.685 29.6183 106.727 30.1855C105.788 30.7351 104.689 31.0098 103.43 31.0098C102.136 31.0098 100.966 30.6907 99.9201 30.0526C98.8742 29.4144 98.0499 28.5192 97.4472 27.3669C96.8445 26.2147 96.5431 24.9029 96.5431 23.4315ZM108.881 23.4581C108.881 22.3591 108.659 21.4018 108.216 20.5864C107.773 19.7709 107.17 19.1505 106.408 18.725C105.664 18.2818 104.839 18.0603 103.935 18.0603C103.031 18.0603 102.207 18.273 101.462 18.6984C100.718 19.1239 100.124 19.7443 99.6808 20.5598C99.2376 21.3752 99.016 22.3325 99.016 23.4315C99.016 24.5483 99.2376 25.5233 99.6808 26.3565C100.124 27.1719 100.718 27.8012 101.462 28.2444C102.207 28.6699 103.031 28.8826 103.935 28.8826C104.839 28.8826 105.664 28.6699 106.408 28.2444C107.17 27.8012 107.773 27.1719 108.216 26.3565C108.659 25.5233 108.881 24.5572 108.881 23.4581ZM114.512 23.4315C114.512 21.9425 114.814 20.6395 115.417 19.5227C116.019 18.3882 116.844 17.5107 117.889 16.8903C118.953 16.2698 120.141 15.9596 121.453 15.9596C122.587 15.9596 123.642 16.2255 124.617 16.7573C125.592 17.2714 126.336 17.9539 126.85 18.8048V11.0936H129.297V30.7705H126.85V28.0317C126.372 28.9003 125.663 29.6183 124.723 30.1855C123.784 30.7351 122.685 31.0098 121.426 31.0098C120.132 31.0098 118.953 30.6907 117.889 30.0526C116.844 29.4144 116.019 28.5192 115.417 27.3669C114.814 26.2147 114.512 24.9029 114.512 23.4315ZM126.85 23.4581C126.85 22.3591 126.629 21.4018 126.186 20.5864C125.742 19.7709 125.14 19.1505 124.378 18.725C123.633 18.2818 122.809 18.0603 121.905 18.0603C121.001 18.0603 120.176 18.273 119.432 18.6984C118.687 19.1239 118.093 19.7443 117.65 20.5598C117.207 21.3752 116.985 22.3325 116.985 23.4315C116.985 24.5483 117.207 25.5233 117.65 26.3565C118.093 27.1719 118.687 27.8012 119.432 28.2444C120.176 28.6699 121.001 28.8826 121.905 28.8826C122.809 28.8826 123.633 28.6699 124.378 28.2444C125.14 27.8012 125.742 27.1719 126.186 26.3565C126.629 25.5233 126.85 24.5572 126.85 23.4581Z" fill="#FCC822"/>
<rect width="20.5866" height="15.0797" transform="matrix(0.930435 -0.366457 0.469532 0.882915 0.0803223 7.57275)"/>
</svg>
